<svg xmlns="http://www.w3.org/2000/svg" xmlns:xlink="http://www.w3.org/1999/xlink" width="225" height="150" fill="none" xmlns:v="https://vecta.io/nano"><defs><animate xlink:href="#pi-circle" attributeName="fill" values="#55df6d;#f6b69f;#a19ff6;#6755df" dur="2s" repeatCount="indefinite"></animate><animate xlink:href="#pi-2" attributeName="fill" values="#a19ff6;#f6b69f;#6755df;#55df6d" dur="4s" repeatCount="indefinite"></animate></defs><style><![CDATA[.B{fill:#fde533}.C{fill:#e6f0ff}.D{fill:#f5b8a9}.E{fill-rule:evenodd}.F{fill:#1f6d48}.G{stroke-linecap:round}.H{fill:#fc9729}.I{fill:#90cfb2}.J{fill:#f5c6b8}.K{stroke-linejoin:round}.L{stroke-width:1.735}.M{stroke-width:1.544}.N{stroke-width:4.043}]]></style><g clip-path="url(#C)"><mask id="A" maskUnits="userSpaceOnUse" x="1121" y="-5" width="715" height="725"><path d="M1144.55 53.066c1.42-34.134 31.02-60.193 65.06-57.283l571.16 48.825c32 2.736 56.18 30.189 54.84 62.28l-23.16 555.49c-1.42 34.134-31.02 60.193-65.06 57.283l-571.16-48.825c-32-2.735-56.18-30.189-54.84-62.28z" class="C"/></mask><g transform="matrix(.112264 0 0 .112264 0 11.025358)"><path fill="#fff" d="M0 0h2000v1000H0z"/><g stroke="#33a7fb" stroke-width="12"><path d="M1751.5 374.5c167 24 170-155 32.5-260.5m0 0v47.5m0-47.5h50m-93.5 385.001c100.72-9.633 177.86 216.888 127 298.499m0 0l-24.68-45.555m24.68 45.555l47.78-14.738M1569.12 573c83.77 56.74-1.09 280.485-92.28 310.991m0 0l10-50.837m-10 50.837l46.22 19.078m-330.55-429.365c-77.67 64.84-269.275-78.507-273.41-174.578m0 0l46.098 23.65m-46.098-23.65L888 338.277m368.79 244.26c36.8 79.096-185.29 149.924-308.29 135.963m0 0l36.001-41m-36.001 41l36.001 37"/></g><path d="M1147.02 253.912c2.27-33.468 31.54-58.569 64.97-55.712l571.26 48.833c32.61 2.788 56.97 31.197 54.75 63.852l-24.02 353.203c-2.27 33.468-31.54 58.569-64.97 55.712l-571.26-48.833c-32.61-2.788-56.97-31.197-54.75-63.852z" class="C"/><circle id="pi-circle" r="83.112" transform="matrix(.99863 .052336 -.098972 .99509 1174.22 261.053)" cx="0" cy="0" class="I"/><path d="M1178.25 269.391l-5.03 35.354-12.94-.734 5.01-35.254-34.32-1.587 1.85-13.029 34.31 1.679 5.43-38.216 13.09-.319-5.56 39.169 35.32 2.167-1.78 12.502z" fill="#1172c8" class="E"/><path id="pi-2" d="M802.668 136.935a8.37 8.37 0 0 1 10.192-6.018l142.824 36.768a8.37 8.37 0 0 1 6.019 10.191l-21.232 82.473a8.37 8.37 0 0 1-10.191 6.019l-124.608-32.079-33.265 31.837c-1.14 1.092-2.998.004-2.604-1.525z" class="I"/><g class="F"><circle cx="834.928" cy="191.445" r="14.619" transform="rotate(14.437 834.928 191.445)"/><circle cx="870.793" cy="200.678" r="14.619" transform="rotate(14.437 870.793 200.678)"/><circle cx="906.658" cy="209.91" r="14.619" transform="rotate(14.437 906.658 209.91)"/></g><g fill="#0071cc"><path d="M877.615 596.313l40.393 89.931c.157.346.243.72.251 1.101s-.061.758-.202 1.111a2.83 2.83 0 0 1-1.565 1.564 60.27 60.27 0 0 1-44.765-.317c-14.328-5.849-25.856-16.986-32.197-31.103l-41.579-92.569c14.58-6.548 31.164-7.037 46.104-1.358s27.012 17.061 33.56 31.64z"/><path d="M885.56 586.287l1.996 4.919-22.606 9.173-1.996-4.92z"/><path d="M887.874 594.288c-4.051-1.713-5.947-6.385-4.235-10.435s6.385-5.947 10.435-4.235 5.947 6.385 4.235 10.435-6.385 5.947-10.435 4.235z"/></g><path d="M876.156 638.952l-38.409 90.864c-.147.351-.364.668-.637.933a2.8 2.8 0 0 1-.952.608 2.79 2.79 0 0 1-1.114.185 2.82 2.82 0 0 1-1.097-.267c-13.945-6.713-24.773-18.532-30.241-33.011s-5.158-30.504.868-44.76l39.536-93.529c7.29 3.082 13.901 7.569 19.457 13.205a60.27 60.27 0 0 1 12.923 19.647 60.26 60.26 0 0 1 4.42 23.096 60.25 60.25 0 0 1-4.754 23.029z" fill="#018ff6"/><path d="M859.04 631.719a41.68 41.68 0 0 1-22.721 22.394c-10.244 4.157-21.719 4.074-31.901-.231l32.458-76.786a41.68 41.68 0 0 1 22.395 22.721c2.058 5.072 3.097 10.5 3.057 15.974a41.68 41.68 0 0 1-3.288 15.928z" fill="#fff"/><g fill="#ff9a07"><path d="M782.158 610.997l38.489 4.489-16.229 38.393c-7.825-3.308-14.453-8.929-18.995-16.109a41.69 41.69 0 0 1-6.42-24.066 2.85 2.85 0 0 1 .281-1.124c.17-.351.41-.663.706-.917a2.83 2.83 0 0 1 1.015-.559c.372-.115.765-.151 1.153-.107z"/><path d="M775.831 575.175a60.29 60.29 0 0 1 68.281-15.199l-23.465 55.511-44.482-36.249c-.296-.24-.541-.537-.718-.874s-.286-.706-.317-1.086.014-.762.135-1.123a2.82 2.82 0 0 1 .566-.98z"/></g><path d="M840.693 612.408c-3.365-1.423-4.94-5.304-3.517-8.669s5.304-4.94 8.669-3.518a6.62 6.62 0 0 1 3.518 8.669c-1.423 3.366-5.304 4.941-8.67 3.518z" fill="#07133d"/><path d="M1746.91 105.702c1.12-7.069.77-14.49-1.31-21.831-7.65-26.991-35.74-42.668-62.73-35.017s-42.67 35.735-35.02 62.726c2.15 7.558 5.89 14.229 10.77 19.749l-.06.017.54.527c1.45 1.588 2.99 3.078 4.61 4.463 21.19 20.599 28.38 28.646 30.92 37.583 1.66 1.629 8.59 3.864 23.03-.23l.83-.242.84-.23c14.44-4.094 19.17-9.634 19.73-11.893-2.73-9.626-.32-21.211 8.35-55.169l-.3.084.15-.639z" class="B E"/><path d="M1721.77 123.626c2.09 31.086 6.62 43.121 8.63 45.253-9.12 11.631-15.6 13.321-29.12 9.455 3.08-13.473-20.04-47.6-28.85-62.619-11.03-18.775-1.18-6.267 6.77 3.78s8.23 5.765 2-11.969c-6.22-17.734 1.25-9.354 9.83 2.914s14.35 19.932 12.94 12.832-.4-17.286 3.18-5.702c3.59 11.584 8.23 7.867 9.49-5.689s2.51-27.113 5.13 11.745z" stroke="#edc639" class="L"/><path d="M1688.78 181.876c-1.19-4.221 3.27-6.826 5.65-7.6 2.49 1.392 13.23 2.247 23.79-.744 8.44-2.394 17.46-8.951 20.91-11.93 2.44-.59 7.6-.714 8.8 3.506 1.49 5.276-4.81 5.263-4.02 8.04.78 2.777 6.06-.82 7.56 4.456s-5.2 3.875-4.1 7.762 6.3.013 7.72 5.011c1.65 5.831-11 10.92-27.66 15.643-15.28 4.329-30.07 6.123-31.48 1.124-1.42-4.998 5.04-4.429 3.94-8.317s-6.07.82-7.56-4.456c-1.5-5.276 4.88-4.985 4.09-7.762-.78-2.776-6.14.543-7.64-4.733z" fill="#bfd4f3"/><path d="M1698.49 185.424c4.32.075 16.29-.958 29.59-5.688m15.88 6.297c-1.51 1.027-8.3 4.153-23.41 8.436" stroke="#e3eeff" class="G L"/><g class="E H"><path d="M1186.64 823.737c17.41-12.902 41.24-20.737 67.35-20.737 26.12 0 49.95 7.829 67.36 20.721s28.65 31.083 28.65 51.602-11.24 38.715-28.65 51.614-41.24 20.734-67.36 20.734c-3.43 0-6.8-.155-10.11-.418A101.81 101.81 0 0 1 1190.32 970l-3.9-8.072a62.35 62.35 0 0 0 15.51-25.737c-25.92-12.613-43.93-34.797-43.93-60.82 0-20.53 11.23-38.732 28.64-51.634zm5.67 7.624c-15.61 11.569-24.8 27.179-24.8 44.01 0 22.258 16.24 42.556 41.98 53.855l2.71 5.456c-2.04 8.471-5.6 16.463-10.47 23.605 13.78-3.509 26.62-10.171 37.48-19.526l3.54-1.134c3.71.345 7.46.549 11.24.549 24.28 0 46.08-7.296 61.7-18.864 15.61-11.567 24.8-27.171 24.8-43.989s-9.19-32.415-24.8-43.976c-15.62-11.561-37.41-18.853-61.7-18.853-24.28 0-46.07 7.297-61.68 18.867z"/><path d="M1280.41 798.617c-12.76 7.926-18.93 18.773-18.93 31.365 0 8.075 3.53 14.551 7.28 19.157a39.57 39.57 0 0 0 5.13 5.235c.69.588 1.26 1.026 1.64 1.307l.42.301a.68.68 0 0 0 .09.06l.01.005-.01-.003v-.002c0-.001 0-.001-2.58 4.029l-2.59 4.028-.01-.008-.02-.015-.06-.041c-.05-.033-.11-.077-.19-.131-.16-.11-.38-.264-.64-.461a41.43 41.43 0 0 1-2.15-1.702c-1.74-1.473-4.05-3.649-6.36-6.491-4.61-5.659-9.44-14.229-9.44-25.268 0-16.392 8.29-30.135 23.46-39.553 14.97-9.303 36.64-14.429 64.05-14.429 30.28 0 55.98 7.849 74.25 20.909 18.3 13.086 29.24 31.534 29.24 52.284 0 26.352-17.97 48.775-43.81 61.533 2.97 9.832 8.27 18.802 15.47 26.11l-3.89 8.164c-20.32-2.318-39.47-10.8-54.94-24.335l6.2-7.269c10.82 9.467 23.63 16.207 37.38 19.757a73.08 73.08 0 0 1-10.45-23.961l2.7-5.515c25.66-11.431 41.86-31.943 41.86-54.484 0-17.024-8.92-32.771-25.23-44.437-16.35-11.691-40.03-19.151-68.78-19.151-26.43 0-46.15 4.972-59.1 13.012zm-4.36 57.432zM1311.31 908L1280 877.513l6.69-6.513 31.31 30.487z"/><path d="M1280 901.487L1311.31 871l6.69 6.513L1286.69 908z"/></g><path d="M1835.23 814.659c2.28-4.17 8.26-4.17 10.54 0l16.26 29.825a6.03 6.03 0 0 0 4.17 3.025l33.39 6.253c4.67.874 6.52 6.569 3.25 10.02l-23.33 24.686c-1.24 1.31-1.83 3.107-1.6 4.894l4.38 33.691c.61 4.709-4.24 8.229-8.53 6.192l-30.69-14.569c-1.63-.773-3.51-.773-5.14 0l-30.69 14.569c-4.29 2.037-9.14-1.483-8.53-6.193l4.38-33.69c.23-1.787-.36-3.584-1.6-4.894l-23.33-24.686c-3.27-3.451-1.42-9.146 3.25-10.02l33.39-6.253a6.03 6.03 0 0 0 4.17-3.025z" class="B"/><g mask="url(#A)"><path d="M1382.81 226.188c11.66-51.016 66.82-44.766 83.19-42.188 84.37-54.988 112.74 23.586 120.23 53.842s.32 53.528 26.27 102.158 46.19 54.684 50.5 61 18.27 17.538-5.37 4.5c-23.63-13.038-9.74.885 10.18 15.692s10.69 17.808-23.58 6.919c-13.7-4.356 27.77 16.889-24 7.889-51.76-9-13.08 20.889-34 3s-13.35-10.889-13.35-10.889c-29.29-18.801-30.17-3.027-37.54-40.472-7.17-36.459 5.82-64.159 10.29-75.274l7.57-29.126-16.2-13.974c-.81-.701-2.22-.45-2.87.406-2.15 2.832-6.16 7.565-5.25 12.213-5.21-3.069-11.8-24.291-14.38-31.459-4.11-11.416-26.58-33.664-25.77-42.524-3.66 4.814-6.12 5.299-3.4 16.534-23.06-.255-43.6-15.827-45.89-24.569.6 10.613-12.85 19.634-18.61 24.469-6.86 5.76-14.32 13.054-14.32 13.054-12.35 27.812 15.66 51.974 26.99 79.111-41.47-19.6-51.07-68.375-50.69-90.312z" fill="#ec8129"/><path d="M1537.2 331.28c-.69 23.669-1.58 54.106 7.29 66.077 5.32 7.19 17.32 14.164 32.29 21.685 7.12 2.224 13.87 5.511 20 9.747 30.74 14.836 66.25 32.57 83.81 57.878 24.93 35.929 37.43 67.217 40.07 75.895l-88.62 22.086 1.26 1.35 52.92 98.275 12.19 78.557-91.64 54.094-62.92 14.834c-9.1-3.62-16.96-6.045-24.33-8.32-21.19-6.543-38.37-11.845-69.58-40.768l-35.44-142.9s-13.14-30.051-22-47.27c-3.97-7.711-15.18-10.074-14.77-18.424L1344.5 513l-41.86-15.925c22.27-11.055 65.97-33.928 102.34-54.065-.03-.114-.05-.228-.08-.341l26.11-14.353c15.28-8.838 26.92-16.08 31.41-19.937 3.33-8.836 5.29-19.162 7.16-29.005 1.01-5.302 2-10.464 3.15-15.176l64.73-53.158c.17 5.42-.04 12.465-.26 20.24z" class="D"/><ellipse cx="1481.46" cy="279.005" rx="90.871" ry="98.818" transform="rotate(356.146 1481.46 279.005)" class="J"/><circle cx="1469.04" cy="274.191" r="6.026" transform="rotate(348.866 1469.04 274.191)" class="F"/><circle cx="1415.09" cy="270.479" r="6.026" transform="rotate(348.866 1415.09 270.479)" class="F"/><path d="M1434.54 262.407l-1.19 40.429c2.81 1.713 6.23 2.414 10.57-.354m.47 26.824c12.89-.553 21.37-.999 34.43-13.557 13.07-12.558 13.3-23.738 13.61-27.972" stroke="#744f41" class="G K M"/><path d="M1472.08 248.003c3.38-.479 11.13.712 15.14 9.303m-86.06-4.158c1.21-3.126 6.04-9.186 15.64-8.412" stroke="#fc9729" class="G K M"/><path d="M1371 204.5c21-47 53.1-39 68.23-31 101.49-78.216 141.77.924 142.77 47s46 47.321 46 47.321c-24 8.5-36 7.903-40 0 2 19.403 18 12.773 28 15.179-5.55 4.371-40.35 13.901-49.43-3.597-1.5 12.751-3.75 8.337-18.07 22.597v-21.406l-11.48-11.134c-.8-.774-2.21-.512-2.71.482-1.25 2.502-2.95 6.259-2.09 10.652-12.83 2.517-19-27.571-22.36-37.582S1491 223.139 1483.5 220.5c-7.16-2.52-38.28-10.042-40.84-17.891 1.12 10.856-12.7 20.11-18.56 25.03-6.86 5.76-27 10.63-27 10.63-5.1 24.231-8.6 17.231-5.1 49.231 0 0-12-6.5-16.5-15s-25.5-21-4.5-68z" class="H"/><path d="M1535.09 300.637c3.44-4.078 5.36-10.154 4.79-16.746-.45-5.221-2.38-9.855-5.2-13.259 2.48-2.93 5.74-4.829 9.44-5.149 8.84-.763 16.8 7.801 17.78 19.129s-5.4 21.131-14.24 21.895c-4.77.412-9.28-1.888-12.57-5.87z" class="D"/><path d="M1260.37 241.907c-17.05 73.66-16.26 180.406 25.98 241.211 32.29 46.498 87.63 104.62 111.58 134.505l10.27-84.279 46.83-75.204c-48.13-3.975-132.14-66.754-132.93-126.017s4.03-152.43 6.94-174.623 35.71-40.855 33.78-61.736-16.33 8.757-26.66 7.403 12.87-62.532-9.33-80.233-46.4 65.921-38.3 105.124c8.09 39.204-11.11 40.189-28.16 113.849z" class="J"/><path d="M1618.85 564.81c22.99 42.472 52.47 129.146 23.15 149.219l97.96 8.238c21.27-52.466-12.74-147.593-27.74-178.851l-33.66 12.134z" class="D"/><path d="M1270.28 449.353c11.5-11.346 47.32-49.63 64.72-73.794 1.46-2.031 4.19-2.747 6.21-1.266 12.49 9.18 22.51 30.988 40.29 44.207 18.36 13.65 51.78 10.314 65.23 1.673 1.47-.949 3.29-1.334 4.95-.779l39.42 13.139c.91.305 1.9.339 2.83.097l70.15-18.133a5 5 0 0 1 3.65.449c11.32 6.166 39.04 20.757 72.77 37.054 44.5 21.5 82 91.5 77.5 96-3.42 3.415-40.99 26.896-62.2 39.97a5 5 0 0 0-2.15 5.74l36.63 117.655c1.06 3.4-1.68 6.785-5.22 6.466l-255.81-22.994c-2.22-.199-4.04-1.838-4.39-4.041-2.87-18.232-6.09-54.768-33.36-77.296-23.87-19.726-95.45-107.065-122.26-158.105-1.05-2.009-.57-4.448 1.04-6.042z" class="I"/><path d="M1492.06 428.351l-26.95-18.095c-1.59-1.073-3.67-1.134-5.32-.156l-11.38 6.71c-2.77 1.633-3.3 5.415-1.09 7.747l27.65 29.166c2.28 2.4 6.21 1.969 7.92-.868l10.67-17.781a5.01 5.01 0 0 0-1.5-6.723zm6.22 1.315l53.51-23.649a4.98 4.98 0 0 1 4.48.224l13.59 7.71c3.26 1.848 3.41 6.488.27 8.535l-54.7 35.727a5 5 0 0 1-6.97-1.531l-12.4-19.789c-1.61-2.581-.57-5.996 2.22-7.227zm147.27 143.074l4.08 14.58c.92 3.286 4.79 4.705 7.62 2.793l59.06-39.952c1.88-1.273 2.66-3.655 1.91-5.799l-3.22-9.179a5.01 5.01 0 0 0-7.22-2.674l-59.92 34.551a4.99 4.99 0 0 0-2.31 5.68zm-291.38-185.025l-11.91-13.844c-1.98-2.307-5.55-2.32-7.55-.028l-66.28 75.873c-1.44 1.655-1.64 4.058-.48 5.924l9.98 16.107c1.78 2.859 5.81 3.188 8.02.654l68.2-78.137c1.64-1.873 1.65-4.664.02-6.549z" fill="#018ff6"/><mask id="B" maskUnits="userSpaceOnUse" x="1268" y="373" width="451" height="345"><path d="M1270.28 449.353c11.5-11.346 47.32-49.63 64.72-73.794 1.46-2.031 4.19-2.747 6.21-1.266 12.49 9.18 22.51 30.988 40.29 44.207 18.36 13.65 51.78 10.314 65.23 1.673 1.47-.949 3.29-1.334 4.95-.779l39.42 13.139c.91.305 1.9.339 2.83.097l70.15-18.133a5 5 0 0 1 3.65.449c11.32 6.166 39.04 20.757 72.77 37.054 44.5 21.5 82 91.5 77.5 96-3.42 3.415-40.99 26.896-62.2 39.97a5 5 0 0 0-2.15 5.74l36.63 117.655c1.06 3.4-1.68 6.785-5.22 6.466l-255.81-22.994c-2.22-.199-4.04-1.838-4.39-4.041-2.87-18.232-6.09-54.768-33.36-77.296-23.87-19.726-95.45-107.065-122.26-158.105-1.05-2.009-.57-4.448 1.04-6.042z" class="F"/></mask><g mask="url(#B)" class="B"><use xlink:href="#D"/><path d="M1403.4 483.388c-1.85-.201-3.55 1.148-3.4 3.006a18.23 18.23 0 0 0 4.69 10.884c1.74 1.913 3.86 3.435 6.23 4.466 1.34.581 2.73.998 4.16 1.247 1.83.32 3.34-1.241 3.31-3.105-.02-1.864-1.58-3.309-3.37-3.825a11.67 11.67 0 0 1-1.41-.506 11.48 11.48 0 0 1-3.92-2.816c-1.1-1.206-1.93-2.631-2.43-4.18-.16-.475-.28-.958-.37-1.447-.34-1.832-1.63-3.524-3.49-3.724z"/><use xlink:href="#E"/><path d="M1649.5 478.286c-.75 1.708.03 3.732 1.84 4.153a18.34 18.34 0 0 0 4.32.47c2.58-.027 5.13-.601 7.48-1.686a18.25 18.25 0 0 0 6.12-4.605 18.27 18.27 0 0 0 2.44-3.59c.85-1.656-.18-3.559-1.97-4.096-1.78-.538-3.63.518-4.66 2.072-.27.414-.58.811-.9 1.188-1.07 1.231-2.39 2.22-3.87 2.904s-3.08 1.046-4.71 1.063a11.53 11.53 0 0 1-1.49-.081c-1.86-.222-3.85.5-4.6 2.208zm-10 123c-.75 1.708.03 3.732 1.84 4.153a18.34 18.34 0 0 0 4.32.47c2.58-.027 5.13-.601 7.48-1.686a18.25 18.25 0 0 0 6.12-4.605 18.27 18.27 0 0 0 2.44-3.59c.85-1.656-.18-3.559-1.97-4.096-1.78-.538-3.63.518-4.66 2.072-.27.414-.58.811-.9 1.188-1.07 1.231-2.39 2.22-3.87 2.904s-3.08 1.046-4.71 1.063a11.53 11.53 0 0 1-1.49-.081c-1.86-.222-3.85.5-4.6 2.208zm-266-51c-.75 1.708.03 3.732 1.84 4.153a18.34 18.34 0 0 0 4.32.47c2.58-.027 5.13-.601 7.48-1.686a18.25 18.25 0 0 0 6.12-4.605 18.27 18.27 0 0 0 2.44-3.59c.85-1.656-.18-3.559-1.97-4.096-1.78-.538-3.63.518-4.66 2.072-.27.414-.58.811-.9 1.188-1.07 1.231-2.39 2.22-3.87 2.904s-3.08 1.046-4.71 1.063a11.53 11.53 0 0 1-1.49-.081c-1.86-.222-3.85.5-4.6 2.208zm235.75-12.983c-.66-1.745-2.63-2.653-4.22-1.687a18.16 18.16 0 0 0-3.42 2.67c-1.83 1.822-3.26 4.011-4.18 6.425-.93 2.413-1.33 4.994-1.18 7.574a18.16 18.16 0 0 0 .76 4.271c.54 1.784 2.61 2.424 4.27 1.564 1.65-.861 2.24-2.904 1.89-4.736-.09-.489-.15-.984-.18-1.483a11.61 11.61 0 0 1 .74-4.776c.59-1.521 1.48-2.902 2.64-4.05.35-.352.73-.68 1.13-.982 1.48-1.132 2.41-3.045 1.75-4.79z"/><use xlink:href="#F"/><path d="M1609.27 615.817c-.66-1.745-2.63-2.653-4.22-1.688-1.24.75-2.39 1.645-3.42 2.671-1.84 1.822-3.26 4.011-4.19 6.424a18.46 18.46 0 0 0-1.18 7.575c.09 1.453.34 2.886.76 4.271.55 1.783 2.62 2.423 4.27 1.563s2.24-2.904 1.9-4.735c-.1-.489-.16-.984-.19-1.483-.09-1.627.17-3.255.75-4.776a11.43 11.43 0 0 1 3.76-5.032c1.48-1.132 2.41-3.045 1.76-4.79zm-184-27c-.66-1.745-2.63-2.653-4.22-1.688-1.24.75-2.39 1.645-3.42 2.671-1.84 1.822-3.26 4.011-4.19 6.424a18.46 18.46 0 0 0-1.18 7.575c.09 1.453.34 2.886.76 4.271.55 1.783 2.62 2.423 4.27 1.563s2.24-2.904 1.9-4.735c-.1-.489-.16-.984-.19-1.483-.09-1.627.17-3.255.75-4.776a11.43 11.43 0 0 1 3.76-5.032c1.48-1.132 2.41-3.045 1.76-4.79zm-88.43-64.135c1.7-.761 2.49-2.782 1.43-4.315-.83-1.19-1.79-2.281-2.88-3.249a18.3 18.3 0 0 0-6.66-3.784c-2.47-.775-5.07-1.019-7.64-.715a18.2 18.2 0 0 0-4.21 1.018c-1.75.649-2.26 2.756-1.3 4.355s3.03 2.059 4.84 1.602a11.2 11.2 0 0 1 1.47-.271c1.62-.192 3.26-.038 4.81.451a11.49 11.49 0 0 1 4.2 2.385 10.23 10.23 0 0 1 1.05 1.064c1.22 1.409 3.19 2.22 4.89 1.459zm111.43-80.865c-.66-1.745-2.63-2.653-4.22-1.688-1.24.75-2.39 1.645-3.42 2.671-1.84 1.822-3.26 4.011-4.19 6.424a18.46 18.46 0 0 0-1.18 7.575c.09 1.453.34 2.886.76 4.271.55 1.783 2.62 2.423 4.27 1.563s2.24-2.904 1.9-4.735c-.1-.489-.16-.984-.19-1.483-.09-1.627.17-3.255.75-4.776a11.43 11.43 0 0 1 3.76-5.032c1.48-1.132 2.41-3.045 1.76-4.79zm111.3 206.807c1.45-1.176 1.68-3.331.26-4.537-1.1-.936-2.32-1.74-3.62-2.393-2.31-1.16-4.83-1.816-7.42-1.927a18.24 18.24 0 0 0-7.55 1.288c-1.35.539-2.63 1.237-3.81 2.076-1.52 1.08-1.47 3.248-.13 4.543s3.47 1.202 5.09.292a12.61 12.61 0 0 1 1.35-.643c1.51-.604 3.14-.881 4.77-.811 1.62.069 3.22.483 4.67 1.214.45.225.88.477 1.29.756 1.55 1.045 3.66 1.318 5.1.142zm125.35-119.747c1.84-.318 3.1-2.082 2.45-3.829-.51-1.357-1.17-2.652-1.99-3.858-1.44-2.141-3.33-3.952-5.52-5.311a18.3 18.3 0 0 0-7.22-2.577c-1.45-.19-2.9-.208-4.34-.054-1.85.199-2.87 2.114-2.34 3.9.54 1.785 2.44 2.744 4.3 2.747a11.53 11.53 0 0 1 1.49.099c1.62.214 3.17.768 4.55 1.625 1.39.857 2.58 1.999 3.49 3.349.28.414.53.845.75 1.289.84 1.667 2.54 2.938 4.38 2.62z"/><use xlink:href="#G"/><path d="M1641.01 676.692c1.84-.317 3.1-2.082 2.45-3.829a18.28 18.28 0 0 0-1.99-3.857c-1.44-2.142-3.33-3.952-5.53-5.312a18.17 18.17 0 0 0-7.22-2.576c-1.44-.191-2.89-.208-4.33-.054-1.86.198-2.87 2.113-2.34 3.899.54 1.786 2.44 2.744 4.3 2.748.5 0 1 .033 1.49.099a11.45 11.45 0 0 1 4.55 1.624c1.39.858 2.58 1.999 3.49 3.349.28.414.53.845.75 1.29.84 1.667 2.54 2.937 4.38 2.619zm-180-131c1.84-.317 3.1-2.082 2.45-3.829a18.28 18.28 0 0 0-1.99-3.857c-1.44-2.142-3.33-3.952-5.53-5.312a18.17 18.17 0 0 0-7.22-2.576c-1.44-.191-2.89-.208-4.33-.054-1.86.198-2.87 2.113-2.34 3.899.54 1.786 2.44 2.744 4.3 2.748.5 0 1 .033 1.49.099a11.45 11.45 0 0 1 4.55 1.624c1.39.858 2.58 1.999 3.49 3.349.28.414.53.845.75 1.29.84 1.667 2.54 2.937 4.38 2.619zm7 89c1.84-.317 3.1-2.082 2.45-3.829a18.28 18.28 0 0 0-1.99-3.857c-1.44-2.142-3.33-3.952-5.53-5.312a18.17 18.17 0 0 0-7.22-2.576c-1.44-.191-2.89-.208-4.33-.054-1.86.198-2.87 2.113-2.34 3.899.54 1.786 2.44 2.744 4.3 2.748.5 0 1 .033 1.49.099a11.45 11.45 0 0 1 4.55 1.624c1.39.858 2.58 1.999 3.49 3.349.28.414.53.845.75 1.29.84 1.667 2.54 2.937 4.38 2.619zm-25.2 53.255c.89 1.64 2.96 2.272 4.41 1.1 1.13-.911 2.14-1.954 3.03-3.11a18.42 18.42 0 0 0 3.27-6.932c.59-2.516.64-5.129.14-7.665-.28-1.428-.73-2.813-1.33-4.128-.78-1.694-2.92-2.047-4.44-.97s-1.83 3.181-1.24 4.949c.16.471.29.953.39 1.444.31 1.599.28 3.246-.09 4.832a11.65 11.65 0 0 1-2.07 4.371c-.3.397-.63.773-.98 1.126-1.31 1.322-1.97 3.343-1.09 4.983zm123.42 23.452c.2 1.853 1.89 3.217 3.67 2.674 1.39-.422 2.72-1.008 3.97-1.749 2.23-1.315 4.15-3.087 5.64-5.198a18.22 18.22 0 0 0 3-7.053c.28-1.428.38-2.881.32-4.326-.09-1.862-1.94-2.992-3.76-2.565-1.81.427-2.88 2.264-3 4.125a10.6 10.6 0 0 1-.19 1.481 11.49 11.49 0 0 1-1.89 4.447c-.94 1.332-2.15 2.449-3.55 3.278-.43.254-.88.479-1.33.675-1.72.733-3.09 2.359-2.88 4.211zm123.23-37.345c.02-1.864-1.48-3.423-3.32-3.1-1.42.251-2.82.67-4.15 1.253-2.37 1.035-4.49 2.56-6.23 4.475a18.4 18.4 0 0 0-3.84 6.635 18.76 18.76 0 0 0-.83 4.256c-.14 1.859 1.56 3.205 3.41 3.002s3.14-1.897 3.48-3.73a10.48 10.48 0 0 1 .37-1.447c.5-1.55 1.32-2.976 2.42-4.184a11.51 11.51 0 0 1 3.92-2.822 11.68 11.68 0 0 1 1.41-.508c1.79-.519 3.34-1.966 3.36-3.83z"/></g><circle cx="1493" cy="481" r="8" class="C"/><circle cx="1489" cy="531" r="8" class="C"/><circle cx="1489" cy="581" r="8" class="C"/><circle cx="1493" cy="631" r="8" class="C"/><circle cx="1505" cy="681" r="8" class="C"/></g><path d="M105.557 663.142C125.488 637.274 149 549.5 234 512.5s136.4-54.413 166.131-47.808c18.404 4.088 7.728 19.742 92.358 33.199C554.171 507.7 711.499 778.5 817 1038.5l-450.498 24.11L150 832c16.028-42.369-61.651-146.525-44.443-168.858z" fill="#1890f1"/><path d="M495.452 497.664c-26.53-4.419-10.67-50.495-9.828-64.11l-164.74-129.66c14.918 29.494 14.621 119.729 13.285 151.706-.521 12.464-13.567 19.365-36.894 29.584 14.594 38.649 162.365 91.797 194.758 70.6s8.206-47.864 3.419-58.12z" class="D"/><ellipse rx="157.925" ry="188.325" transform="matrix(-.996537 .083146 .083146 .996537 462.926 269.889)" cx="0" cy="0" class="J"/><g fill="#09133c"><circle r="11.129" transform="matrix(-.986416 -.164269 -.164269 .986416 546.123 259.845)" cx="0" cy="0"/><circle r="8.819" transform="matrix(-.986416 -.164269 -.164269 .986416 601.832 243.859)" cx="0" cy="0"/></g><g class="G"><g stroke="#744f41" class="N"><path d="M584.057 256.791c9.455 16.618 14.642 36.286 13.731 64.34-7.42 3.152-15.094 5.949-21.803 1.071" class="K"/><path d="M565.651 343.624c-27.2 10.775-67.148 1.332-76.663-34.68"/></g><g stroke="#09133c"><path d="M527.989 216.415c-5.488 2.847-17.868 11.316-23.477 22.416" class="N"/><path d="M591 209c5.559-.593 14.066.539 19.41 10.536" stroke-width="3.256"/></g></g><path d="M329.98 366.381c26.348 4.387 133.892-170.337 134.703-184.618-9.88.611-131.162 19.884-148.696 16.024-6.707 13.174-9.906 36.899-10.667 47.114-1.766 23.701-10.212 52.419 24.66 121.48z" fill="#09133c"/><path d="M423.112 306.92c-5.96-7.409-10.083-17.841-10.99-29.625-.977-12.695 1.975-24.413 7.472-32.821-6.166-7.665-14.297-12.093-22.867-11.434-16.853 1.297-29.019 21.783-27.174 45.757s17.003 42.356 33.857 41.059c7.928-.61 14.819-5.467 19.702-12.936z" class="D E"/><ellipse rx="19.936" ry="16.638" transform="matrix(-.786253 .617905 .617905 .786253 342.26 112.803)" cx="0" cy="0" class="H"/><path d="M303.996 274.071c27.32-24.033 49.746-31.51 77.95-50.599s77.95-30.769 77.95-30.769l109.403-88.89C550.341 93.447 468.101 36.12 373.454 89.83S292.1 243.884 303.996 274.071z" fill="#1890f1"/><path d="M591.179 172.873c-6.838-4.103-54.976-9.301-131.967 20.447 16.195-18.241 7.136-52.605 40.368-99.722 30.593-43.375 86.813-37.649 140.83-23.29s-5.758 106.964-35.121 123.012c-4.881-15.856-7.273-16.344-14.11-20.447z" class="H"/><path d="M525.5 710c-51.5-83-130.5-7.5-258-64-115.5-64-142-174-228-81-68.8 74.4 99 341.667 191.5 466h436.5c-211-132.5-90.5-238-142-321z" fill="#fd337e"/></g></g><defs><clipPath id="C"><path fill="#fff" d="M0 0h2000v1000H0z"/></clipPath><path id="D" d="M1597.4 457.388c-1.85-.201-3.55 1.148-3.4 3.006a18.23 18.23 0 0 0 4.69 10.884c1.74 1.913 3.86 3.435 6.23 4.466 1.34.581 2.73.998 4.16 1.247 1.83.32 3.34-1.241 3.31-3.105-.02-1.864-1.58-3.309-3.37-3.825a11.67 11.67 0 0 1-1.41-.506 11.48 11.48 0 0 1-3.92-2.816c-1.1-1.206-1.93-2.631-2.43-4.18-.16-.475-.28-.958-.37-1.447-.34-1.832-1.63-3.524-3.49-3.724z"/><path id="E" d="M1550.5 509.286c-.75 1.708.03 3.732 1.84 4.153a18.34 18.34 0 0 0 4.32.47c2.58-.027 5.13-.601 7.48-1.686a18.25 18.25 0 0 0 6.12-4.605 18.27 18.27 0 0 0 2.44-3.59c.85-1.656-.18-3.559-1.97-4.096-1.78-.538-3.63.518-4.66 2.072-.27.414-.58.811-.9 1.188-1.07 1.231-2.39 2.22-3.87 2.904s-3.08 1.046-4.71 1.063a11.53 11.53 0 0 1-1.49-.081c-1.86-.222-3.85.5-4.6 2.208z"/><path id="F" d="M1363.27 449.817c-.66-1.745-2.63-2.653-4.22-1.688-1.24.75-2.39 1.645-3.42 2.671-1.84 1.822-3.26 4.011-4.19 6.424a18.46 18.46 0 0 0-1.18 7.575c.09 1.453.34 2.886.76 4.271.55 1.783 2.62 2.423 4.27 1.563s2.24-2.904 1.9-4.735c-.1-.489-.16-.984-.19-1.483-.09-1.627.17-3.255.75-4.776a11.43 11.43 0 0 1 3.76-5.032c1.48-1.132 2.41-3.045 1.76-4.79z"/><path id="G" d="M1557.01 577.692c1.84-.317 3.1-2.082 2.45-3.829a18.28 18.28 0 0 0-1.99-3.857c-1.44-2.142-3.33-3.952-5.53-5.312a18.17 18.17 0 0 0-7.22-2.576c-1.44-.191-2.89-.208-4.33-.054-1.86.198-2.87 2.113-2.34 3.899.54 1.786 2.44 2.744 4.3 2.748.5 0 1 .033 1.49.099a11.45 11.45 0 0 1 4.55 1.624c1.39.858 2.58 1.999 3.49 3.349.28.414.53.845.75 1.29.84 1.667 2.54 2.937 4.38 2.619z"/></defs></svg>