<svg xmlns="http://www.w3.org/2000/svg" fill="currentColor" class="svg-icon" overflow="hidden" style="width:1em;height:1em;vertical-align:middle" viewBox="0 0 1024 1024">
  <path fill="#38ADFF" d="M661.7 715.5a259.5 259.5 0 0 1-152.9 47.1c-7.2-.1-14.2-.7-21.3-1.2l-8.6-1.1a214 214 0 0 1-16.5-2.6c-3.4-.6-6.7-1.5-10-2.2-5.3-1.2-10.5-2.4-15.7-4-2.5-.8-4.8-1.6-7.3-2.6-6-1.9-12-4-17.7-6.4l-3.9-1.6c-6.7-3-13.4-6.2-19.9-9.6l-.8-.5a260.3 260.3 0 0 1-59.4-44.5l-.9-1a217.7 217.7 0 0 1-18.6-21A259.6 259.6 0 0 1 251 501.8h68.8L209.9 337 100 501.8h68.6c0 72.1 22.6 139.1 60.8 194.5.5.8.8 1.7 1.3 2.4 4 5.8 8.4 11 12.6 16.2 1.7 2 3 4 4.8 6.1a384.6 384.6 0 0 0 21.6 23.6c23 23 48.9 42.4 77.2 58l2.3 1.2a337 337 0 0 0 24.9 12.1l6.3 2.8c7.3 3 14.7 5.7 22.2 8.2a544.8 544.8 0 0 0 10.6 3.6 360.5 360.5 0 0 0 20 5c4.6 1.1 9 2.3 13.5 3.1 2 .5 3.7 1 5.5 1.3 6.5 1.1 12.9 1.7 19.2 2.5a354.1 354.1 0 0 0 41.2 2.9c69.7 0 137.8-21.4 196.3-62.3a41.2 41.2 0 0 0-47.2-67.5m193.5-213.7c0-72-22.3-139-60.4-194l-1.4-2.8c-4.9-6.8-10-13.2-15.1-19.5a24.3 24.3 0 0 1-1.7-2.4A343.3 343.3 0 0 0 648.4 187l-4.2-1.8c-8-3.3-16-6.1-24.3-9-2.8-.9-5.8-2-8.7-2.8-7.1-2.2-14.3-4-21.5-5.6-4-.9-8.2-2-12.2-2.8-2-.3-3.8-.9-6-1.3-5.4-.9-10.7-1.4-16.1-2L544 160c-9.1-.8-18.2-1.2-27.2-1.4l-5-.2-.8.1c-69.7 0-137.7 21-196 62a41.2 41.2 0 1 0 47.3 67.4A258.7 258.7 0 0 1 537 242.2l6.9.9c6.2.8 12.3 1.6 18.4 2.9 2.7.4 5.4 1.1 7.9 1.7a242.9 242.9 0 0 1 42.7 13.5c.7.2 1.3.7 2 1a261.9 261.9 0 0 1 98.9 74.3A260 260 0 0 1 773 501.8h-68.8l110 164.8L924 501.8h-68.8z"/>
</svg>
